<?xml version="1.0" encoding="UTF-8"?>
<svg version="1.1" xmlns="http://www.w3.org/2000/svg" width="1024" height="1024">
<path d="M0 0 C337.92 0 675.84 0 1024 0 C1024 337.92 1024 675.84 1024 1024 C686.08 1024 348.16 1024 0 1024 C0 686.08 0 348.16 0 0 Z " fill="#FDFDFD" transform="translate(0,0)"/>
<path d="M0 0 C9.30807543 1.7747896 17.95479571 4.12193233 26.8125 7.5 C27.96903076 7.93578369 29.12556152 8.37156738 30.31713867 8.82055664 C58.86518572 19.72439204 85.84577285 33.24176741 112 49 C112.87978516 49.52819336 113.75957031 50.05638672 114.66601562 50.60058594 C128.96778877 59.21971538 142.84061537 68.465551 156.69384766 77.77978516 C161.84928649 81.24187058 167.01858693 84.68307941 172.1875 88.125 C173.91022765 89.2733304 175.63289175 90.42175613 177.35546875 91.5703125 C178.41737427 92.27824951 178.41737427 92.27824951 179.50073242 93.00048828 C179.99549072 93.33032715 180.49024902 93.66016602 181 94 C180.08512596 89.94494235 178.37078358 86.43951445 176.5 82.75 C175.96379028 81.68881958 175.96379028 81.68881958 175.41674805 80.60620117 C162.06986977 54.43147377 146.50371844 28.40347908 127.01171875 6.3359375 C125 4 125 4 124 2 C144.95796765 8.17002568 163.44306926 23.39078934 180.66308594 36.25830078 C182.90658842 37.93038047 185.158811 39.58990928 187.4140625 41.24609375 C194.9751884 46.82072559 202.12134681 52.58663048 209 59 C210.22481033 60.0675189 211.45391083 61.13013785 212.6875 62.1875 C223.95047234 72.01118784 235.35942783 82.24481425 245.09765625 93.59765625 C249.34569973 98.48319136 253.90243235 103.05297359 258.48803711 107.6184082 C259.93524385 109.06025221 261.37702026 110.50737116 262.81835938 111.95507812 C268.0402373 117.18137568 273.34280932 122.24577083 279 127 C279.85791138 127.7259436 279.85791138 127.7259436 280.7331543 128.46655273 C295.22829652 140.60041981 310.61295118 150.6205653 327.41381836 159.28491211 C342.206756 167.01137435 356.62179613 176.84918643 363.140625 192.7890625 C364.21252513 196.79407116 364.53594094 200.69179368 364.875 204.8125 C366.1649054 217.7676368 370.11801908 224.310406 380.07421875 232.5625 C401.43641289 249.95139944 425.65953899 264 454 264 C454.33 260.04 454.66 256.08 455 252 C461.42324404 253.25331591 464.43899748 256.81900263 468 262 C480.47926133 282.46812686 483.557954 306.13048864 478.4375 329.5625 C474.89818634 343.96029053 468.80740348 361.52221271 456.84375 370.984375 C453.61782012 372.76137027 450.64838481 372.8719865 447 373 C447 372.34 447 371.68 447 371 C447.99 370.34 448.98 369.68 450 369 C451.03622282 359.84112733 445.81751767 351.54574591 440.40234375 344.484375 C408.98373794 305.56941973 347.5371643 281.52352148 298.8263855 276.25778198 C295.40727132 275.91627838 291.98563787 275.61049909 288.5625 275.3125 C287.13730251 275.18237539 285.71217167 275.05151877 284.28710938 274.91992188 C280.85879459 274.60489359 277.42970274 274.29958924 274 274 C274 274.66 274 275.32 274 276 C274.66902344 276.21785156 275.33804688 276.43570312 276.02734375 276.66015625 C300.17345089 287.54335566 313.81937446 310.19806118 326.24609375 332.1484375 C333.53848763 345.01329773 340.08743181 355.27522072 355.03125 359.5859375 C363.89108704 361.44931592 370.57944037 358.57537096 378 354 C378.44860414 362.64809092 378.55807527 370.36439216 374 378 C371.50907189 379.24546405 370.58919267 378.7767578 368 378 C368.33 378.66 368.66 379.32 369 380 C380.34246823 383.78082274 391.38853775 380.08413667 402 376 C403.80886445 375.38503413 405.62078055 374.77885782 407.4375 374.1875 C408.613125 373.795625 409.78875 373.40375 411 373 C406.82612058 389.87858257 396.3585634 405.85750283 381.875 415.625 C367.08275445 424.48035781 351.98901106 426.6542548 335.125 422.6875 C330.93802668 421.42780889 326.94472227 419.88270836 323 418 C323 417.34 323 416.68 323 416 C324.74985354 415.52029877 326.49988891 415.04126076 328.25 414.5625 C329.22453125 414.29566406 330.1990625 414.02882813 331.203125 413.75390625 C333.46372653 413.14455416 335.72622009 412.55761745 338 412 C335.73036809 408.87925613 333.31368446 406.3437329 330.375 403.875 C323.74212914 398.2055629 318.13279487 391.51507113 312.5 384.875 C279.84470107 347.67371977 223.27534348 340.75118962 177.17773438 332.85107422 C175.91896484 332.63338379 174.66019531 332.41569336 173.36328125 332.19140625 C172.27313721 332.00779541 171.18299316 331.82418457 170.05981445 331.63500977 C166.93235072 330.9859606 164.00711989 330.06951792 161 329 C161.078125 327.15625 161.078125 327.15625 162 325 C164.30717151 323.91575546 166.31935762 323.183691 168.75 322.5 C169.44287109 322.2935083 170.13574219 322.0870166 170.84960938 321.87426758 C180.07684661 319.2409467 189.55290997 317.6245798 199 316 C170.5481647 302.4435373 140.58816051 292.6519877 110.24609375 284.2890625 C109.41994568 284.0612056 108.59379761 283.83334869 107.74261475 283.59858704 C103.66569403 282.4768427 99.58612068 281.36644102 95.50146484 280.27319336 C94.01789914 279.87094762 92.53433772 279.46868605 91.05078125 279.06640625 C90.02324989 278.79668503 90.02324989 278.79668503 88.97496033 278.52151489 C85.99254335 277.70781329 84.2250555 277.2250555 82 275 C100.34303697 265.99747097 119.43356726 257.93220155 139 252 C139 251.34 139 250.68 139 250 C128.67941193 244.60809492 118.28607314 241.6219636 107 239 C105.47246094 238.64421875 105.47246094 238.64421875 103.9140625 238.28125 C87.79975119 234.82455231 66.95018236 233.19696602 51 238 C50.41089844 238.46664062 49.82179688 238.93328125 49.21484375 239.4140625 C45.87609993 241.80476795 42.18241816 242.50397817 38.25 243.5625 C-5.6218025 256.13600977 -47.42893812 283.30729708 -75 320 C-75.41749512 320.55171875 -75.83499023 321.1034375 -76.26513672 321.671875 C-106.82801882 362.17292151 -125.69326909 408.3475208 -134.25 458.3125 C-134.40122314 459.19317139 -134.55244629 460.07384277 -134.70825195 460.98120117 C-137.56978959 478.81451056 -138.37475817 496.52281204 -138.3125 514.5625 C-138.30976578 516.21150803 -138.30976578 516.21150803 -138.30697632 517.89382935 C-138.26081209 534.45144777 -137.73381654 550.63675959 -135 567 C-134.82307617 568.10166504 -134.64615234 569.20333008 -134.46386719 570.33837891 C-129.21225055 602.49659442 -120.1478101 633.580623 -106 663 C-105.52530273 663.99483398 -105.52530273 663.99483398 -105.04101562 665.00976562 C-102.78037059 669.71906066 -100.42293371 674.3722852 -98 679 C-97.63712891 679.69528809 -97.27425781 680.39057617 -96.90039062 681.10693359 C-85.33271488 703.07257606 -71.23495546 724.48578326 -54.21875 742.6328125 C-52.3099506 744.66931327 -50.49017421 746.74537017 -48.6875 748.875 C-41.14136711 757.54768828 -32.77171585 765.58262448 -24 773 C-23.04480469 773.84433594 -22.08960938 774.68867187 -21.10546875 775.55859375 C-6.68727463 788.25221645 8.80384677 799.67928974 25 810 C26.57394531 811.00740234 26.57394531 811.00740234 28.1796875 812.03515625 C84.25069279 847.20188401 147.82652955 866.40022907 214 868 C215.39412109 868.04084717 215.39412109 868.04084717 216.81640625 868.08251953 C281.83198186 869.78500249 348.44265766 854.34298788 405 822 C406.15193848 821.34378662 406.15193848 821.34378662 407.32714844 820.67431641 C425.67101157 810.14032554 442.9664025 798.22039547 459.13378906 784.57373047 C460.94173676 783.04913198 462.76308857 781.54187823 464.5859375 780.03515625 C478.72658035 768.19969773 492.0546126 755.04724299 504 741 C504.45955078 740.46753662 504.91910156 739.93507324 505.39257812 739.38647461 C511.17923901 732.6781306 516.77593317 725.8432392 522.20800781 718.84521484 C525.06577642 715.16488699 527.99944728 711.56517285 531 708 C533.17110954 712.34221908 529.48331363 719.66314326 528.0546875 724.1640625 C522.24035787 741.34092286 513.16047149 757.06362274 503 772 C502.32855957 772.98782471 502.32855957 772.98782471 501.64355469 773.99560547 C487.25797988 794.9723305 469.49041148 814.79650598 450.03125 831.24609375 C447.93267375 833.05813363 445.91033423 834.94169131 443.88745117 836.83740234 C437.44914197 842.85064803 430.695691 848.33110648 423.70410156 853.68554688 C422.11043796 854.91481405 420.53493855 856.16752969 418.9609375 857.421875 C356.67601476 906.67041856 280.25933326 931.790425 201.1574707 931.39111328 C197.7485032 931.37403948 194.34023984 931.3842005 190.93129635 931.4014349 C168.04183884 931.4993528 145.3338011 929.95868779 122.8125 925.6875 C121.6670874 925.47512695 120.5216748 925.26275391 119.34155273 925.04394531 C68.90346633 915.46977587 19.32059581 897.87435944 -24 870 C-24.64179199 869.59539551 -25.28358398 869.19079102 -25.94482422 868.77392578 C-50.16404824 853.4885942 -75.76006419 834.34978224 -94.15625 812.15234375 C-95.67598096 810.37825104 -97.22921629 808.68988412 -98.84375 807.00390625 C-119.43116032 785.48540702 -135.0136337 759.99009902 -151 735 C-146.17564442 753.45287085 -140.16147158 771.56833128 -132.0234375 788.82910156 C-130.12782607 792.8500407 -128.27789465 796.89106134 -126.4375 800.9375 C-126.07841553 801.70199463 -125.71933105 802.46648926 -125.34936523 803.25415039 C-122.88705309 808.66115927 -122.88705309 808.66115927 -124 812 C-142.10842896 797.04086303 -154.55486772 778.47095675 -166.52880859 758.45019531 C-167.87222404 756.21280444 -169.23804672 753.9913532 -170.61328125 751.7734375 C-187.24319653 724.66615057 -199.00340517 694.71091 -207 664 C-207.2573291 663.01193359 -207.5146582 662.02386719 -207.77978516 661.00585938 C-221.29720126 608.03197029 -227.04906791 551.50738764 -222 497 C-230.59317217 518.70736802 -237.35197652 540.37362172 -241.31542969 563.41162109 C-242.30156371 569.02479512 -243.4756664 573.87879448 -246 579 C-246.66 578.67 -247.32 578.34 -248 578 C-248.64108006 575.67186714 -249.13396735 573.43190009 -249.5625 571.0625 C-249.81128906 569.79535156 -250.06007813 568.52820313 -250.31640625 567.22265625 C-262.48654084 486.86780769 -236.38003896 402.19841897 -199 332 C-204.45200631 334.91339378 -209.07395164 338.29499565 -213.8125 342.25 C-215.23142958 343.42098655 -216.65069935 344.591561 -218.0703125 345.76171875 C-218.74868164 346.32294434 -219.42705078 346.88416992 -220.12597656 347.46240234 C-222.44939311 349.36871779 -224.81632308 351.21609174 -227.1875 353.0625 C-231.1817002 356.23495918 -234.90284193 359.6433408 -238.625 363.125 C-251.05820638 374.72643913 -251.05820638 374.72643913 -258 376 C-256.12267468 369.32886873 -253.9279145 362.92737436 -251.1875 356.5625 C-250.61588135 355.23436279 -250.61588135 355.23436279 -250.03271484 353.87939453 C-236.20152639 322.4330643 -218.60173924 291.77138624 -197 265 C-196.27683594 264.09636719 -195.55367187 263.19273437 -194.80859375 262.26171875 C-192.56354435 259.48653246 -190.28569618 256.74181492 -188 254 C-187.57873337 253.49299057 -187.15746674 252.98598114 -186.72343445 252.46360779 C-179.53011142 243.83547145 -171.98383456 235.69173886 -163.99853516 227.79272461 C-162.2313929 226.04408776 -160.47263385 224.2873301 -158.71484375 222.52929688 C-152.97879944 216.81091122 -147.20218772 211.21703117 -141 206 C-139.8733038 205.029103 -138.74699002 204.05776202 -137.62109375 203.0859375 C-132.23769249 198.48962663 -126.87658773 193.96328009 -121 190 C-144.0528004 189.59023989 -166.72760346 193.82740395 -188.171875 202.3359375 C-190 203 -190 203 -192 203 C-189.77896605 197.9990422 -186.02500516 194.68340796 -182.1875 190.875 C-181.41921875 190.1123584 -180.6509375 189.3497168 -179.859375 188.56396484 C-173.61710291 182.45282201 -167.21685396 176.94718499 -160 172 C-159.36658691 171.56526367 -158.73317383 171.13052734 -158.08056641 170.68261719 C-147.42665017 163.45015348 -136.36076915 157.04879958 -125 151 C-124.37931641 150.66436035 -123.75863281 150.3287207 -123.11914062 149.98291016 C-92.55357973 133.54183828 -48.78588411 113.46952155 -13.6875 113.9375 C-12.80449219 113.94652344 -11.92148437 113.95554687 -11.01171875 113.96484375 C-10.34785156 113.97644531 -9.68398438 113.98804688 -9 114 C-10.36894135 109.89317594 -13.18349262 108.26478074 -16.5625 105.8125 C-17.56591431 105.08220581 -17.56591431 105.08220581 -18.58959961 104.3371582 C-25.65693975 99.33253063 -33.13701145 95.57555237 -41 92 C-42.69189453 91.20142578 -42.69189453 91.20142578 -44.41796875 90.38671875 C-61.80324512 82.49914318 -80.34189272 78.59924648 -99 75 C-99 74.01 -99 73.02 -99 72 C-39.46212529 60.29530641 33.78569462 65.9176363 88.6640625 92.93359375 C90.87525522 94.13843078 90.87525522 94.13843078 93 94 C80.88997887 76.54732248 66.44887841 60.3543528 49.74609375 47.17578125 C46.57983261 44.66709355 43.50918886 42.06030464 40.4375 39.4375 C36.71438449 36.26840663 32.96638249 33.15096465 29.125 30.125 C24.76462904 26.66382174 20.52737867 23.07315608 16.3125 19.4375 C15.69455566 18.90721191 15.07661133 18.37692383 14.43994141 17.83056641 C12.6071162 16.2407461 10.79819137 14.62887015 9 13 C8.03779541 12.1339917 8.03779541 12.1339917 7.05615234 11.25048828 C6.12150146 10.37046143 6.12150146 10.37046143 5.16796875 9.47265625 C4.60746826 8.9506665 4.04696777 8.42867676 3.46948242 7.89086914 C1.56556429 5.44098611 0.85303485 2.96004391 0 0 Z " fill="#000000" transform="translate(365,26)"/>
<path d="M0 0 C0.82547836 0.00202423 1.65095673 0.00404846 2.50144958 0.00613403 C3.79895142 0.00350555 3.79895142 0.00350555 5.12266541 0.00082397 C7.99707515 -0.00359616 10.87142392 -0.00065573 13.74583435 0.00271606 C15.73501599 0.00204301 17.72419755 0.00107297 19.71337891 -0.00018311 C23.88900025 -0.00166035 28.06460025 0.00049509 32.24021912 0.00515747 C37.60176769 0.01085108 42.96326616 0.00757825 48.32481289 0.00158501 C52.4347878 -0.00202304 56.54475077 -0.00088083 60.65472603 0.0017128 C62.63195362 0.00238158 64.60918228 0.00155533 66.58640862 -0.00076675 C69.34718076 -0.00329685 72.10787106 0.00055258 74.86863708 0.00613403 C75.69209122 0.0041098 76.51554535 0.00208557 77.36395264 0 C83.02121413 0.02126533 83.02121413 0.02126533 85.2497406 1.13552856 C86.4051599 3.61866317 87.4523196 6.0847093 88.4606781 8.62771606 C88.78026993 9.41854584 89.09986176 10.20937561 89.42913818 11.02416992 C90.50131833 13.6835402 91.5630979 16.34693578 92.6247406 19.01052856 C93.3858415 20.90553547 94.14732429 22.80038904 94.90916443 24.69509888 C101.09510494 40.11280158 107.13485829 55.58754001 113.17756653 71.06176758 C119.97236415 88.45008928 126.90523117 105.77930747 133.9372406 123.07302856 C134.39110138 124.19261963 134.84496216 125.31221069 135.31257629 126.46572876 C141.00355095 140.49354006 146.92638213 154.38061399 153.2497406 168.13552856 C155.39642231 165.43079399 156.98442739 162.83458995 158.38645935 159.68240356 C158.78921082 158.77723999 159.19196228 157.87207642 159.60691833 156.93948364 C160.04592468 155.93167847 160.48493103 154.92387329 160.9372406 153.88552856 C161.41943054 152.78168823 161.90162048 151.6778479 162.39842224 150.54055786 C168.78039415 135.77491813 174.6509947 120.80111336 180.58323669 105.8508606 C185.28018758 94.01726188 189.99383531 82.19031515 194.71444225 70.3661356 C196.24217154 66.53905785 197.76845645 62.71141927 199.29096985 58.88226318 C205.3909027 43.54191753 211.54920041 28.23450901 218.0466156 13.05740356 C218.81307404 11.26450897 218.81307404 11.26450897 219.59501648 9.43539429 C223.11891177 1.2663574 223.11891177 1.2663574 224.2497406 0.13552856 C226.98324808 0.03504333 229.69151952 -0.00063405 232.42552185 0.00613403 C233.71080276 0.00350555 233.71080276 0.00350555 235.02204895 0.00082397 C237.8687998 -0.00359561 240.71548907 -0.00065618 243.5622406 0.00271606 C245.53139762 0.00204306 247.50055457 0.00107306 249.4697113 -0.00018311 C253.60245045 -0.00166022 257.73516802 0.00049492 261.86790466 0.00515747 C267.17798581 0.01085476 272.48801642 0.00757583 277.7980957 0.00158501 C281.86599614 -0.00202023 285.93388449 -0.00088219 290.00178528 0.0017128 C291.96030178 0.00238217 293.91881936 0.00155329 295.87733459 -0.00076675 C298.6095726 -0.00329267 301.34172757 0.00054645 304.07395935 0.00613403 C304.89165802 0.0041098 305.70935669 0.00208557 306.55183411 0 C312.13547814 0.02126611 312.13547814 0.02126611 313.2497406 1.13552856 C314.19114853 6.0137333 314.19114853 6.0137333 313.2497406 9.13552856 C310.94158034 11.49195834 308.47045456 13.32699879 305.80052185 15.26052856 C300.68853995 19.01818754 297.89108094 22.94963803 296.2497406 29.13552856 C296.06629971 32.03433023 295.97940667 34.83435096 295.99577332 37.73094177 C295.99265333 38.58318067 295.98953335 39.43541957 295.98631883 40.31348389 C295.9783573 43.1621953 295.98465537 46.01069261 295.99095154 48.85940552 C295.9882408 50.90477625 295.9846794 52.95014601 295.98033142 54.99551392 C295.97121332 60.54726309 295.97474978 66.09893793 295.98108959 71.65068841 C295.98615461 77.46409317 295.98145655 83.27749159 295.97831726 89.09089661 C295.97467822 98.85668072 295.9794742 108.62243459 295.98899841 118.38821411 C295.99987369 129.66940436 295.99636385 140.95052225 295.9853456 152.23171073 C295.97626008 161.92276894 295.97499392 171.6138054 295.98022294 181.30486649 C295.98333685 187.0903903 295.98376807 192.87588014 295.97714996 198.66140175 C295.97135908 204.10410815 295.97540534 209.54672163 295.98693848 214.98941803 C295.98957613 216.98359969 295.9888353 218.9777892 295.98441315 220.9719677 C295.97892064 223.70113774 295.98583667 226.43001299 295.99577332 229.15916443 C295.99131187 229.94206433 295.98685043 230.72496423 295.98225379 231.53158838 C296.04390315 240.30528497 297.61348969 249.15792732 303.2497406 256.13552856 C304.98277278 257.33776988 306.75676654 258.48259373 308.5622406 259.57302856 C313.0616508 262.41019375 313.0616508 262.41019375 313.9294281 265.75662231 C313.93671565 268.32548361 313.80216636 270.62799597 313.2497406 273.13552856 C311.35222156 275.0330476 308.56916289 274.26224171 306.04414368 274.27105713 C305.1516391 274.2690329 304.25913452 274.26700867 303.33958435 274.2649231 C301.93726059 274.26755157 301.93726059 274.26755157 300.50660706 274.27023315 C297.40013298 274.2746533 294.29371531 274.27171311 291.1872406 274.26834106 C289.03872161 274.26901406 286.89020269 274.26998404 284.74168396 274.27124023 C280.23231788 274.27271743 275.72297157 274.27056196 271.21360779 274.26589966 C265.41925483 274.26020236 259.62494818 274.26348125 253.83059692 274.26947212 C249.39211169 274.27307715 244.95363753 274.27193942 240.51515198 274.26934433 C238.37800593 274.2686749 236.24085889 274.26950404 234.10371399 274.27182388 C231.12241434 274.27434946 228.1411908 274.27051116 225.15989685 274.2649231 C223.82113998 274.26795944 223.82113998 274.26795944 222.45533752 274.27105713 C216.36400293 274.24979089 216.36400293 274.24979089 215.2497406 273.13552856 C214.39709982 269.93124952 214.2668168 267.31709772 215.2497406 264.13552856 C217.81189704 261.99742241 220.49560988 260.50582711 223.40989685 258.88552856 C229.47191041 255.14992736 232.3428368 249.84749192 234.2497406 243.13552856 C234.43468969 240.66031519 234.51765141 238.17648799 234.5282135 235.69439697 C234.5369021 234.602524 234.5369021 234.602524 234.54576623 233.48859298 C234.56270682 231.06112625 234.56563757 228.63385032 234.56858826 226.20632935 C234.57789054 224.46161944 234.58805966 222.71691397 234.59902954 220.97221375 C234.62630973 216.24339042 234.64147311 211.51459686 234.65445757 206.78571558 C234.67009674 201.84091437 234.69688448 196.89617386 234.7224884 191.95141602 C234.76926222 182.59119852 234.80601312 173.23096958 234.83916128 163.87069499 C234.87739251 153.21292183 234.92680007 142.55520963 234.97714543 131.89748788 C235.08044453 109.97687981 235.16971154 88.05623313 235.2497406 66.13552856 C234.5897406 66.13552856 233.9297406 66.13552856 233.2497406 66.13552856 C232.86559998 67.35240356 232.48145935 68.56927856 232.0856781 69.82302856 C230.0039974 76.06078358 227.42503475 82.07796016 224.8747406 88.13552856 C218.0891689 104.37419026 211.64984774 120.74192491 205.2497406 137.13552856 C204.63535013 138.70829423 204.02092898 140.28104791 203.40647888 141.85379028 C200.09615379 150.32809421 196.78948184 158.80382068 193.4841156 167.28005981 C186.09050698 186.23887397 178.68276094 205.19212869 171.2497406 224.13552856 C170.85560974 225.1400708 170.46147888 226.14461304 170.05540466 227.17959595 C167.68694362 233.21443277 165.31464016 239.24773881 162.93745422 245.27914429 C162.19444384 247.16529562 161.45233996 249.05180433 160.7111969 250.93869019 C159.68635128 253.5470316 158.65797643 256.15395398 157.62864685 258.76052856 C157.3294635 259.5239859 157.03028015 260.28744324 156.72203064 261.07403564 C152.39993966 271.9853295 152.39993966 271.9853295 150.2497406 274.13552856 C146.63394411 274.46993259 143.0040165 274.46043818 139.3747406 274.51052856 C138.35509216 274.54791138 137.33544373 274.58529419 136.28489685 274.62380981 C135.30649841 274.63541138 134.32809998 274.64701294 133.3200531 274.65896606 C132.42044861 274.6787854 131.52084412 274.69860474 130.59397888 274.71902466 C128.2497406 274.13552856 128.2497406 274.13552856 126.74316406 271.92004395 C125.34518421 269.31348492 124.13927225 266.73249264 123.01072693 263.99978638 C122.57926865 262.95812317 122.14781036 261.91645996 121.70327759 260.8432312 C121.23005569 259.68672058 120.7568338 258.53020996 120.26927185 257.33865356 C119.74879054 256.07327587 119.22826579 254.80791604 118.70770264 253.54257202 C111.19413322 235.23302199 103.8931625 216.83629807 96.55870056 198.45452881 C92.56688061 188.45022698 88.56885448 178.44840497 84.57088852 168.446558 C83.68904579 166.24042031 82.80725291 164.03426269 81.92551041 161.82808495 C74.95174653 144.37975053 67.96485337 126.93679767 60.93641663 109.51040649 C59.98903329 107.16127736 59.04222253 104.81191722 58.09602356 102.46231079 C56.82090453 99.29667727 55.54359126 96.13194 54.2653656 92.96755981 C53.90995193 92.08479874 53.55453827 91.20203766 53.18835449 90.29252625 C50.98696504 84.85482069 48.66650154 79.48097642 46.2497406 74.13552856 C45.9197406 74.13552856 45.5897406 74.13552856 45.2497406 74.13552856 C45.17947614 103.4689487 45.17317604 132.80210792 45.2497406 162.13552856 C45.25228096 163.12144989 45.25482132 164.10737122 45.25743866 165.12316895 C45.29010142 177.18012622 45.35203637 189.23643017 45.45826721 201.29296875 C45.48780892 204.71495661 45.50816366 208.13680656 45.52046204 211.55889893 C45.53541542 215.5846992 45.56941722 219.60989842 45.61798668 223.63542938 C45.63260166 225.09724588 45.64077287 226.55914495 45.64164162 228.02103424 C45.65450545 238.84072634 46.67609011 249.38052869 54.3903656 257.63162231 C57.95202132 260.51237327 62.06172913 262.33948412 66.2497406 264.13552856 C66.27663276 265.61459748 66.29608682 267.09380339 66.3122406 268.57302856 C66.32384216 269.3967395 66.33544373 270.22045044 66.34739685 271.06912231 C66.2497406 273.13552856 66.2497406 273.13552856 65.2497406 274.13552856 C63.0771138 274.23509134 60.90120954 274.26352575 58.7263031 274.2649231 C58.04501343 274.26667542 57.36372375 274.26842773 56.66178894 274.27023315 C54.39941393 274.27465099 52.13711647 274.27171394 49.8747406 274.26834106 C48.309148 274.26901412 46.7435555 274.26998417 45.17796326 274.27124023 C41.89263415 274.27271711 38.60733218 274.27056298 35.32200623 274.26589966 C31.10153544 274.26020237 26.88112824 274.26348143 22.66065979 274.26947212 C19.42657488 274.27307801 16.19250516 274.27193902 12.9584198 274.26934433 C11.40181979 274.26867514 9.84521842 274.26950322 8.28862 274.27182388 C6.11676864 274.27435086 3.94502164 274.27050921 1.7731781 274.2649231 C0.53487244 274.2641275 -0.70343323 274.26333191 -1.97926331 274.26251221 C-4.7502594 274.13552856 -4.7502594 274.13552856 -5.7502594 273.13552856 C-6.45560538 269.6620323 -6.55964242 266.59473878 -5.7502594 263.13552856 C-3.70367013 261.01039216 -1.51515006 259.54081565 0.92552185 257.88943481 C8.18278471 252.4129457 9.91062746 242.64218191 11.2497406 234.13552856 C11.77585279 227.59243752 11.6610107 221.0179089 11.63792419 214.45901489 C11.64199684 212.50290129 11.64734259 210.54678999 11.65385437 208.59068298 C11.6674486 203.314032 11.66226284 198.03755836 11.65271711 192.76090455 C11.64508264 187.22160531 11.6521763 181.68232051 11.65687561 176.14302063 C11.6623208 166.84695733 11.65517264 157.55096573 11.64085388 148.25491333 C11.62451537 137.52399136 11.62982963 126.7932403 11.6463331 116.06232244 C11.65996604 106.82629686 11.66185921 97.59032258 11.65401709 88.35429019 C11.64935238 82.84772007 11.6486829 77.34123019 11.65862656 71.8346653 C11.66732078 66.65938916 11.66122948 61.48433265 11.64394379 56.30908012 C11.63999268 54.41529326 11.64108929 52.52148777 11.64773178 50.62770844 C11.77243486 33.21160168 11.77243486 33.21160168 4.0778656 17.92849731 C2.0115082 15.90187756 -0.11940554 14.63613652 -2.6252594 13.19802856 C-6.57758256 10.79745644 -6.57758256 10.79745644 -7.3596344 7.79959106 C-7.37430323 5.47458178 -7.25642927 3.40374262 -6.7502594 1.13552856 C-4.93226332 -0.68246751 -2.41989465 0.00913057 0 0 Z " fill="#010101" transform="translate(562.7502593994141,437.8644714355469)"/>
<path d="M0 0 C9.68285205 -0.48906707 19.36139695 -0.86083412 29.05395031 -1.08805561 C33.55662885 -1.19719523 38.05080486 -1.34473465 42.54858398 -1.58422852 C71.45285226 -3.08289466 71.45285226 -3.08289466 78.81781006 1.91043091 C83.30481418 6.72507655 85.76280938 12.25259098 87.9972229 18.38119507 C89.3842332 22.00344514 91.26962703 24.94547239 93.390625 28.19140625 C94.67803549 30.31452709 95.9644946 32.43822512 97.25 34.5625 C97.96539013 35.74290198 98.68088831 36.92323848 99.39648438 38.10351562 C100.86824653 40.53116581 102.33956578 42.95908351 103.81054688 45.38720703 C107.0171317 50.67942618 110.2294978 55.96813456 113.44152832 61.25704956 C115.21126513 64.17121686 116.98061251 67.0856206 118.75 70 C119.45833148 71.16666779 120.16666481 72.33333446 120.875 73.5 C127.95833333 85.16666667 135.04166667 96.83333333 142.125 108.5 C142.65088463 109.36615936 142.65088463 109.36615936 143.18739319 110.24981689 C143.89609105 111.41708876 144.60478042 112.58436578 145.3134613 113.75164795 C147.07864781 116.65909741 148.84397948 119.56645852 150.60961914 122.47363281 C153.86429367 127.83287864 157.11769687 133.19288097 160.36593628 138.55603027 C161.86318588 141.02792941 163.36125447 143.49933175 164.859375 145.97070312 C165.88750609 147.66749193 166.91448569 149.36497829 167.94140625 151.0625 C171.66847474 157.20993567 175.44120617 163.32571645 179.25610352 169.41894531 C179.71456917 170.1518277 180.17303482 170.88471008 180.64539337 171.63980103 C181.76329075 173.42672476 182.88160212 175.21338948 184 177 C184.09358133 158.13671671 184.16404669 139.27348076 184.20724869 120.4100132 C184.22784433 111.65070444 184.25590734 102.8915402 184.30175781 94.13232422 C184.34171767 86.49478059 184.3674546 78.85734167 184.37635398 71.2196964 C184.38155331 67.17830078 184.39371043 63.13720463 184.42292023 59.0959053 C184.45023432 55.28572209 184.45841306 51.47595939 184.45243073 47.66568756 C184.45352387 46.27339003 184.46138234 44.88107725 184.4768219 43.4888649 C184.57767474 33.91881961 183.89653587 25.71685921 177.625 18.125 C173.99941902 15.19000587 170.45072043 12.59921061 166.125 10.8125 C164 9 164 9 163.79248047 6.85424805 C163.81713379 6.03996338 163.84178711 5.22567871 163.8671875 4.38671875 C163.8863623 3.56776123 163.90553711 2.74880371 163.92529297 1.9050293 C163.94994629 1.27636963 163.97459961 0.64770996 164 0 C173.76150988 -0.02312446 183.5230133 -0.04091561 193.28454494 -0.05181217 C197.81674094 -0.05704078 202.34891827 -0.06413801 206.88110352 -0.07543945 C211.2512283 -0.08626914 215.62133508 -0.09227701 219.99147224 -0.09487724 C221.66250963 -0.09673135 223.33354597 -0.10035168 225.00457573 -0.10573006 C227.33697551 -0.11294159 229.66929993 -0.1139909 232.00170898 -0.11352539 C232.6994191 -0.11712067 233.39712921 -0.12071594 234.11598206 -0.12442017 C238.88594784 -0.11405216 238.88594784 -0.11405216 240 1 C241.03155752 5.8998982 241.03155752 5.8998982 240 9 C237.7578125 10.88671875 237.7578125 10.88671875 234.875 12.75 C226.46740147 18.25768038 223.48551532 25.96328487 221.42423368 35.49194515 C220.71670892 39.67480708 220.71234549 43.8083975 220.7215271 48.04176331 C220.7128385 49.49887558 220.7128385 49.49887558 220.70397437 50.98542446 C220.68705875 54.21891428 220.68410514 57.45226063 220.68115234 60.68579102 C220.67184835 63.01221564 220.66167898 65.33863694 220.65071106 67.66505432 C220.62345022 73.96596627 220.60827319 80.2668559 220.59528303 86.56781125 C220.58122179 92.49004167 220.55809007 98.41223089 220.53501268 104.334432 C220.48961777 116.05928033 220.45297289 127.78413887 220.421875 139.5090332 C220.39165948 150.89414254 220.35729548 162.27922699 220.31738281 173.66430664 C220.31492126 174.36687309 220.31245972 175.06943953 220.30992357 175.79329587 C220.29754839 179.31810121 220.28509197 182.84290627 220.27259517 186.36771119 C220.16913678 215.57843824 220.08004408 244.78919959 220 274 C212.93255309 274.31243349 205.86690271 274.52584638 198.7940979 274.6729126 C196.39242025 274.7342523 193.99119517 274.81765716 191.59109497 274.9241333 C170.55445094 275.83352506 170.55445094 275.83352506 165.06875706 271.36442852 C162.27191548 268.47942 160.25012983 265.30578694 158.375 261.75 C157.96922446 261.00957112 157.56344893 260.26914225 157.14537716 259.50627613 C156.24389648 257.6027832 156.24389648 257.6027832 155.05859375 253.98828125 C152.4049908 246.5711612 148.7904587 240.2672598 144.53851318 233.6630249 C142.70688726 230.79247241 140.95567759 227.87395837 139.19921875 224.95703125 C138.85183655 224.38287476 138.50445435 223.80871826 138.14654541 223.21716309 C131.68110469 212.52788467 125.34681707 201.759931 119 191 C114.66920961 183.66516357 110.33608105 176.33171002 106 169 C105.65688782 168.41970032 105.31377563 167.83940063 104.96026611 167.24151611 C95.44918224 151.1571165 85.89120871 135.10451678 76.16894531 119.14672852 C72.64031851 113.35394135 69.1244585 107.5541851 65.640625 101.734375 C65.11363007 100.85415932 65.11363007 100.85415932 64.57598877 99.9561615 C62.9001888 97.15585016 61.22675378 94.35415039 59.55566406 91.55102539 C58.97010742 90.57125732 58.38455078 89.59148926 57.78125 88.58203125 C57.26626953 87.71811768 56.75128906 86.8542041 56.22070312 85.96411133 C55.14811737 84.07234664 55.14811737 84.07234664 54 83 C53.9297808 102.74144959 53.87694873 122.48287368 53.84456348 142.22442245 C53.82912381 151.39168229 53.80808999 160.55886433 53.77368164 169.72607422 C53.74369022 177.72034868 53.72440395 185.71456676 53.71773452 193.70889592 C53.7138387 197.93808936 53.70474407 202.16712158 53.68280983 206.39626312 C53.66229037 210.3853305 53.65619707 214.37417183 53.66067696 218.36328697 C53.65985861 219.81923594 53.65398564 221.27519329 53.64238358 222.73109627 C53.54991019 234.94505848 54.19363776 247.64891432 63 257 C64.76298051 258.20957856 66.55633889 259.37587708 68.375 260.5 C72.81236526 263.33405937 72.81236526 263.33405937 73.67578125 266.3984375 C73.68677487 268.7217559 73.55628297 270.74584465 73 273 C71.11939504 274.88060496 67.88641856 274.12780999 65.38476562 274.12939453 C64.69372238 274.13114685 64.00267914 274.13289917 63.29069519 274.13470459 C60.99585493 274.13912254 58.70109111 274.13618533 56.40625 274.1328125 C54.81823715 274.13348556 53.23022441 274.13445559 51.64221191 274.13571167 C48.3098045 274.13718857 44.97742384 274.13503436 41.64501953 274.13037109 C37.3640149 274.1246738 33.08307295 274.12795285 28.80207062 274.13394356 C25.52166264 274.1375494 22.24126963 274.13641048 18.96086121 274.13381577 C17.3819325 274.13314656 15.80300246 274.1339747 14.22407532 274.13629532 C12.02109147 274.13882223 9.81821051 274.13498075 7.61523438 274.12939453 C5.73112854 274.12820114 5.73112854 274.12820114 3.80895996 274.12698364 C1 274 1 274 0 273 C-0.78505478 269.49797302 -0.88334811 266.48770202 0 263 C2.29695225 260.66374628 4.77131187 258.94108275 7.44921875 257.05859375 C13.8619809 251.8832099 15.62783712 243.78970973 17 236 C17.25041371 233.12323606 17.27123314 230.27189182 17.25396729 227.38549805 C17.25708727 226.56744784 17.26020725 225.74939764 17.26342177 224.90655804 C17.2713382 222.19153621 17.26510315 219.47674186 17.25878906 216.76171875 C17.26150175 214.80457428 17.26506424 212.84743083 17.26940918 210.89028931 C17.27850237 205.59284064 17.27500159 200.29547015 17.26865101 194.99802017 C17.26357512 189.44488571 17.26828688 183.89175778 17.27142334 178.33862305 C17.27505835 169.0144735 17.27027608 159.69035567 17.26074219 150.36621094 C17.24985855 139.59789456 17.25338445 128.82965392 17.264395 118.06133938 C17.27348111 108.80333783 17.27474667 99.54535904 17.26951766 90.28735447 C17.26640525 84.76344626 17.26596858 79.23957362 17.27259064 73.71566772 C17.27838272 68.52161501 17.27433312 63.32765964 17.26280212 58.1336174 C17.2601655 56.23134904 17.26090353 54.32907244 17.26532745 52.4268074 C17.27082385 49.82259629 17.26389947 47.21869362 17.25396729 44.61450195 C17.25842873 43.86866694 17.26289017 43.12283194 17.26748681 42.35439587 C17.19740174 32.82630685 15.01441942 24.54008975 9 17 C6.65371781 15.20105607 4.32867401 13.61561693 1.7578125 12.15625 C-0.44285674 9.4567624 -0.187062 8.28393695 -0.10986328 4.86523438 C-0.09400177 3.95656616 -0.07814026 3.04789795 -0.0617981 2.11169434 C-0.04140472 1.41483521 -0.02101135 0.71797607 0 0 Z " fill="#010101" transform="translate(292,438)"/>
<path d="M0 0 C15.40819638 0.3523704 28.69885951 6.8645089 42 14 C42.69335449 14.36673828 43.38670898 14.73347656 44.10107422 15.11132812 C52.75457361 19.70893695 60.55214698 24.57089213 68 31 C68.83917969 31.65484375 69.67835938 32.3096875 70.54296875 32.984375 C72.81329368 34.84683552 74.70467694 36.72342889 76.625 38.9375 C77.19476562 39.58589844 77.76453125 40.23429687 78.3515625 40.90234375 C80.12735519 43.16206099 81.57065794 45.50947974 83 48 C79.50001799 48.02934711 76.00006821 48.04691445 72.5 48.0625 C71.51773438 48.07087891 70.53546875 48.07925781 69.5234375 48.08789062 C66.68018875 48.09736812 63.84250423 48.06317247 61 48 C60.23389404 47.99178223 59.46778809 47.98356445 58.6784668 47.97509766 C54.82059505 47.75246697 53.15181743 47.13813432 50.26953125 44.515625 C49.43142206 43.44171904 48.61325203 42.35204229 47.8125 41.25 C46.86665764 40.05357815 45.91596421 38.86097845 44.9609375 37.671875 C44.47463867 37.06021484 43.98833984 36.44855469 43.48730469 35.81835938 C32.03235959 21.81369242 17.13222732 11.48861837 1.7734375 2.171875 C1.18820312 1.78515625 0.60296875 1.3984375 0 1 C0 0.67 0 0.34 0 0 Z " fill="#FAFAFA" transform="translate(608,200)"/>
<path d="M0 0 C20.3444996 -1.1443781 39.48377657 5.36035226 55.546875 17.7890625 C58.01800806 20.01623019 60.00540426 22.34364586 62 25 C57.34325446 23.59015961 53.16649475 21.62732783 48.875 19.375 C33.20712678 11.38680866 16.90327009 5.74730139 0 1 C0 0.67 0 0.34 0 0 Z " fill="#F3F3F3" transform="translate(452,194)"/>
<path d="M0 0 C0 0.99 0 1.98 0 3 C-1.86328125 4.60546875 -1.86328125 4.60546875 -4.3125 6.1875 C-5.11300781 6.71730469 -5.91351563 7.24710937 -6.73828125 7.79296875 C-9 9 -9 9 -12 9 C-9.87564767 0.60621762 -9.87564767 0.60621762 -6.5625 -1.6875 C-3.62884303 -2.04526305 -2.42890924 -1.61927283 0 0 Z " fill="#090909" transform="translate(119,393)"/>
<path d="M0 0 C0.66 0 1.32 0 2 0 C2 10.56 2 21.12 2 32 C1.67 32 1.34 32 1 32 C0.67 25.4 0.34 18.8 0 12 C-0.99 12.66 -1.98 13.32 -3 14 C-3 13.34 -3 12.68 -3 12 C-3.66 11.67 -4.32 11.34 -5 11 C-3.35 7.37 -1.7 3.74 0 0 Z " fill="#D4D4D4" transform="translate(796,504)"/>
<path d="M0 0 C3.7118808 1.27308308 5.45423121 3.53454202 7.75 6.625 C8.67039062 7.85089844 8.67039062 7.85089844 9.609375 9.1015625 C10.29773438 10.04128906 10.29773438 10.04128906 11 11 C10.67 11.66 10.34 12.32 10 13 C6.7173068 11.50923566 4.06922559 9.61379679 1.25 7.375 C0.45078125 6.74335938 -0.3484375 6.11171875 -1.171875 5.4609375 C-2.07679688 4.73777344 -2.07679688 4.73777344 -3 4 C-2.67 3.01 -2.34 2.02 -2 1 C-1.34 0.67 -0.68 0.34 0 0 Z " fill="#F4F4F4" transform="translate(813,322)"/>
<path d="M0 0 C6.17398461 3.15267299 10.94783982 7.28006804 16 12 C15.01 12.495 15.01 12.495 14 13 C12.30419922 12.28735352 12.30419922 12.28735352 10.3046875 11.12890625 C9.58925781 10.71962891 8.87382812 10.31035156 8.13671875 9.88867188 C7.39035156 9.45103516 6.64398438 9.01339844 5.875 8.5625 C4.74384766 7.9118457 4.74384766 7.9118457 3.58984375 7.24804688 C1.72242866 6.17251034 -0.13932697 5.08715861 -2 4 C-1.34 3.67 -0.68 3.34 0 3 C0 2.01 0 1.02 0 0 Z " fill="#F7F7F7" transform="translate(498,206)"/>
<path d="M0 0 C3.25524265 3.02272532 5.61820737 6.25718301 8 10 C6.89131683 12.21736634 5.50559539 14.03617993 4 16 C3.32815382 13.89748139 2.66269032 11.79292237 2 9.6875 C1.443125 7.92986328 1.443125 7.92986328 0.875 6.13671875 C0 3 0 3 0 0 Z " fill="#EFEFEF" transform="translate(213,760)"/>
<path d="M0 0 C3.91211733 1.15585285 6.8745041 2.35534962 10 5 C5.545 5.495 5.545 5.495 1 6 C0.34 4.35 -0.32 2.7 -1 1 C-0.67 0.67 -0.34 0.34 0 0 Z " fill="#F6F6F6" transform="translate(556,338)"/>
<path d="M0 0 C0.99 0.33 1.98 0.66 3 1 C2.34 1.66 1.68 2.32 1 3 C0.67 3.99 0.34 4.98 0 6 C0.99 6.33 1.98 6.66 3 7 C0.42786866 8.61949011 -0.67669159 9.04408751 -3.75 8.625 C-4.86375 8.315625 -4.86375 8.315625 -6 8 C-4.02 5.36 -2.04 2.72 0 0 Z " fill="#0C0C0C" transform="translate(172,286)"/>
<path d="M0 0 C2 1 2 1 4 4 C3.67 4.66 3.34 5.32 3 6 C-3.75 5.25 -3.75 5.25 -6 3 C-4.03533587 1.93224776 -2.03144641 0.93446535 0 0 Z " fill="#0A0A0A" transform="translate(453,298)"/>
<path d="M0 0 C3.63 0.33 7.26 0.66 11 1 C10.01 2.485 10.01 2.485 9 4 C8.67 4.66 8.34 5.32 8 6 C6.66402348 5.19185349 5.331275 4.37836819 4 3.5625 C3.2575 3.11003906 2.515 2.65757812 1.75 2.19140625 C1.1725 1.79824219 0.595 1.40507812 0 1 C0 0.67 0 0.34 0 0 Z " fill="#F1F1F1" transform="translate(608,200)"/>
<path d="M0 0 C4.62 0 9.24 0 14 0 C13.01 0.66 12.02 1.32 11 2 C10.67 2.66 10.34 3.32 10 4 C6.7 3.01 3.4 2.02 0 1 C0 0.67 0 0.34 0 0 Z " fill="#E9E9E9" transform="translate(452,194)"/>
<path d="M0 0 C0.99 1.98 1.98 3.96 3 6 C-2.75 5.25 -2.75 5.25 -5 3 C-2.25 0 -2.25 0 0 0 Z " fill="#ECECEC" transform="translate(456,115)"/>
<path d="M0 0 C4 4.75 4 4.75 4 7 C2.68 7 1.36 7 0 7 C-0.66 6.34 -1.32 5.68 -2 5 C-1.34 3.35 -0.68 1.7 0 0 Z " fill="#F1F1F1" transform="translate(194,777)"/>
<path d="M0 0 C1.32 0.33 2.64 0.66 4 1 C3.34 1.66 2.68 2.32 2 3 C1.3574765 5.06874034 1.3574765 5.06874034 1 7 C-0.32 7.33 -1.64 7.66 -3 8 C-1.125 2.25 -1.125 2.25 0 0 Z " fill="#F5F5F5" transform="translate(884,769)"/>
<path d="M0 0 C1.32 0.33 2.64 0.66 4 1 C4 1.99 4 2.98 4 4 C4.66 4.33 5.32 4.66 6 5 C5.34 6.32 4.68 7.64 4 9 C0 2.25 0 2.25 0 0 Z " fill="#F3F3F3" transform="translate(439,554)"/>
<path d="M0 0 C0.66 0.33 1.32 0.66 2 1 C1.21654285 2.17219543 0.42297164 3.33763668 -0.375 4.5 C-0.81585938 5.1496875 -1.25671875 5.799375 -1.7109375 6.46875 C-2.13632812 6.9740625 -2.56171875 7.479375 -3 8 C-3.66 8 -4.32 8 -5 8 C-5.33 8.66 -5.66 9.32 -6 10 C-5.49477778 5.62140745 -2.82172778 3.18348776 0 0 Z " fill="#E5E5E5" transform="translate(299,334)"/>
<path d="M0 0 C0.66 0.33 1.32 0.66 2 1 C1.34 1.66 0.68 2.32 0 3 C0.33 3.66 0.66 4.32 1 5 C0.01 5.99 -0.98 6.98 -2 8 C-2.66 7.01 -3.32 6.02 -4 5 C-2.68 3.35 -1.36 1.7 0 0 Z " fill="#F6F6F6" transform="translate(141,375)"/>
<path d="M0 0 C2.475 0.99 2.475 0.99 5 2 C4.34 3.32 3.68 4.64 3 6 C1.68 5.01 0.36 4.02 -1 3 C-0.67 2.01 -0.34 1.02 0 0 Z " fill="#F5F5F5" transform="translate(355,904)"/>
<path d="M0 0 C1.98 0.99 1.98 0.99 4 2 C4 4.31 4 6.62 4 9 C1.49701566 6.06171403 0.53069061 3.82097239 0 0 Z " fill="#262626" transform="translate(625,700)"/>
<path d="M0 0 C0.99 0.33 1.98 0.66 3 1 C3.6875 3.0625 3.6875 3.0625 4 5 C2.68 4.67 1.36 4.34 0 4 C0 2.68 0 1.36 0 0 Z " fill="#F5F5F5" transform="translate(412,633)"/>
<path d="M0 0 C1.98 0 3.96 0 6 0 C6 1.32 6 2.64 6 4 C4.35 3.67 2.7 3.34 1 3 C0.67 2.01 0.34 1.02 0 0 Z " fill="none" transform="translate(462,195)"/>
</svg>
