<?xml version="1.0" encoding="iso-8859-1"?>
<!-- Uploaded to: SVG Repo, www.svgrepo.com, Generator: SVG Repo Mixer Tools -->
<svg version="1.1" id="Layer_1" xmlns="http://www.w3.org/2000/svg" xmlns:xlink="http://www.w3.org/1999/xlink" 
	 viewBox="0 0 512.001 512.001" xml:space="preserve">
<rect x="111.884" y="102.229" style="fill:#B5DDF8;" width="288.238" height="307.548"/>
<g>
	<path style="fill:#074761;" d="M111.882,460.583c0,20.725,16.801,37.527,37.527,37.527h213.183
		c20.725,0,37.527-16.801,37.527-37.527v-50.807H111.882V460.583z"/>
	<path style="fill:#074761;" d="M362.592,13.892H149.409c-20.725,0-37.527,16.801-37.527,37.527v50.807h288.236V51.419
		C400.118,30.692,383.317,13.892,362.592,13.892z"/>
</g>
<circle style="fill:#509ED9;" cx="255.996" cy="453.16" r="31.951"/>
<path d="M362.592,0H149.409c-28.353,0-51.419,23.066-51.419,51.419v50.807v307.549v50.807c0,28.352,23.066,51.419,51.419,51.419
	h213.183c28.353,0,51.419-23.066,51.419-51.419v-50.807V102.226V51.419C414.009,23.066,390.944,0,362.592,0z M256,471.225
	c-9.958,0-18.059-8.102-18.059-18.059s8.102-18.059,18.059-18.059c9.958,0,18.059,8.102,18.059,18.059S265.959,471.225,256,471.225z
	 M125.774,395.884V116.118h260.452v279.766H125.774z M125.774,51.419c0-13.033,10.602-23.635,23.635-23.635h213.183
	c13.032,0,23.635,10.602,23.635,23.635v36.916H125.774V51.419z M125.774,460.583v-36.916h95.173
	c-6.726,7.979-10.79,18.272-10.79,29.499c0,11.97,4.616,22.878,12.155,31.052h-72.905
	C136.376,484.217,125.774,473.616,125.774,460.583z M386.226,460.583c0,13.033-10.602,23.635-23.635,23.635h-72.905
	c7.539-8.172,12.155-19.082,12.155-31.052c0-11.229-4.065-21.521-10.79-29.499h95.173v36.916H386.226z"/>
<path d="M265.72,72.891h-61.114c-7.672,0-13.892-6.221-13.892-13.892s6.219-13.892,13.892-13.892h61.114
	c7.672,0,13.892,6.221,13.892,13.892S273.392,72.891,265.72,72.891z"/>
<path d="M307.399,72.894c-0.903,0-1.82-0.096-2.723-0.276c-0.889-0.182-1.75-0.445-2.598-0.792
	c-0.833-0.347-1.639-0.779-2.389-1.278c-0.764-0.5-1.473-1.084-2.125-1.723c-0.639-0.639-1.209-1.347-1.723-2.112
	c-0.5-0.75-0.931-1.571-1.278-2.403c-0.347-0.832-0.611-1.707-0.792-2.598c-0.181-0.889-0.264-1.806-0.264-2.709
	c0-0.902,0.083-1.82,0.264-2.723c0.181-0.875,0.445-1.75,0.792-2.598c0.347-0.833,0.778-1.639,1.278-2.389
	c0.514-0.764,1.084-1.473,1.723-2.112c0.653-0.639,1.361-1.222,2.125-1.736c0.75-0.5,1.556-0.931,2.389-1.278
	c0.847-0.347,1.709-0.611,2.598-0.792c1.792-0.361,3.64-0.361,5.432,0c0.889,0.181,1.764,0.445,2.598,0.792
	c0.847,0.347,1.653,0.778,2.403,1.278c0.764,0.514,1.473,1.097,2.112,1.736c0.639,0.639,1.222,1.347,1.723,2.112
	c0.5,0.75,0.931,1.556,1.278,2.389c0.347,0.847,0.611,1.723,0.792,2.598c0.181,0.903,0.278,1.821,0.278,2.723
	c0,0.903-0.097,1.821-0.278,2.709c-0.181,0.89-0.445,1.766-0.792,2.598c-0.347,0.832-0.778,1.653-1.278,2.403
	c-0.5,0.764-1.084,1.473-1.723,2.112C314.637,71.407,311.053,72.894,307.399,72.894z"/>
<path d="M162.926,302.537c-7.672,0-13.892-6.221-13.892-13.892V185.857c0-7.671,6.219-13.892,13.892-13.892
	s13.892,6.221,13.892,13.892v102.789C176.817,296.318,170.598,302.537,162.926,302.537z"/>
<path d="M162.926,344.212c-0.903,0-1.82-0.097-2.709-0.278c-0.889-0.167-1.764-0.445-2.612-0.792
	c-0.833-0.347-1.639-0.778-2.389-1.278c-0.764-0.499-1.473-1.082-2.112-1.723c-0.639-0.639-1.222-1.348-1.723-2.112
	c-0.5-0.75-0.931-1.556-1.278-2.403c-0.347-0.834-0.625-1.707-0.792-2.596c-0.181-0.89-0.278-1.807-0.278-2.709
	c0-0.903,0.097-1.821,0.278-2.709c0.167-0.889,0.445-1.764,0.792-2.598c0.347-0.847,0.778-1.652,1.278-2.402
	c0.5-0.765,1.084-1.474,1.723-2.113c0.639-0.639,1.348-1.222,2.112-1.723c0.75-0.514,1.556-0.931,2.389-1.278
	c0.847-0.347,1.723-0.625,2.612-0.806c1.792-0.347,3.626-0.347,5.418,0c0.889,0.181,1.764,0.458,2.598,0.806
	c0.847,0.347,1.653,0.764,2.403,1.278c0.764,0.5,1.473,1.084,2.112,1.723c0.639,0.639,1.222,1.348,1.723,2.113
	c0.5,0.75,0.931,1.555,1.278,2.402c0.347,0.835,0.625,1.709,0.792,2.598c0.181,0.889,0.278,1.806,0.278,2.709
	c0,0.902-0.097,1.82-0.278,2.709c-0.167,0.889-0.445,1.764-0.792,2.596c-0.347,0.847-0.778,1.653-1.278,2.403
	c-0.5,0.764-1.084,1.473-1.723,2.112c-0.639,0.64-1.348,1.224-2.112,1.723c-0.75,0.5-1.556,0.931-2.403,1.278
	c-0.833,0.347-1.709,0.625-2.598,0.792C164.746,344.115,163.829,344.212,162.926,344.212z"/>
</svg>